<svg width="173" height="50" viewBox="0 0 173 50" fill="none" xmlns="http://www.w3.org/2000/svg">
<path d="M7.35468 16.5314C7.83182 14.3221 8.30243 12.1129 8.77958 9.89712C9.25672 7.68787 9.73386 5.47863 10.2045 3.26285C10.3875 2.39353 10.8908 1.59611 11.6098 1.00785C12.3287 0.39345 13.2242 0.0078125 14.1524 0.0078125H40.6502C40.5456 0.563391 40.4214 1.12551 40.2972 1.68762C40.16 2.36085 40.0162 3.03408 39.8789 3.71385C39.7155 4.39362 39.0357 4.9492 38.3691 4.9492H20.4075C20.0023 4.9492 19.6166 5.23025 19.4598 5.59628C19.4205 5.65511 19.4009 5.72047 19.3944 5.7793C19.1983 6.74666 18.9892 7.72055 18.78 8.68792C18.5316 9.88404 18.2767 11.0802 18.0218 12.2698C17.7669 13.4594 17.4989 14.6489 17.2505 15.8451C17.2309 15.9104 17.2309 15.9693 17.2113 16.0281C17.2309 16.4007 17.4924 16.6752 17.9172 16.6752H37.1141C37.0095 17.2308 36.8853 17.7929 36.7611 18.355C36.6239 19.0282 36.4801 19.7014 36.3232 20.3812C36.186 21.0544 35.4931 21.6166 34.8133 21.6166H9.55739C7.76646 21.6166 6.57687 20.1524 6.97558 18.3615C7.1063 17.7537 7.23703 17.1393 7.36122 16.5248V16.5379L7.35468 16.5314Z" fill="#FF862D"/>
<path d="M58.2594 14.6424C57.5927 13.3025 56.9391 11.9495 56.2855 10.603C55.037 11.9495 53.7886 13.296 52.5729 14.6424H58.2529H58.2594ZM45.4419 21.6231H35.1016C38.4024 18.0216 41.7097 14.4136 44.9974 10.8122C48.2982 7.21073 51.6055 3.61581 54.8932 0.0078125H60.8543C61.6778 0.0078125 62.3445 0.386913 62.6844 1.04707V1.06014C64.3381 4.48512 66.044 7.91664 67.7108 11.3416C69.384 14.7666 71.0704 18.1981 72.7567 21.6166H61.6844C61.3314 20.9303 60.9981 20.2505 60.6647 19.5642H48.0433C47.4289 20.2505 46.8079 20.9303 46.1674 21.6166H45.4484V21.6231H45.4419Z" fill="#FF862D"/>
<path d="M97.3985 10.0997C97.856 10.0997 98.3136 9.72064 98.4116 9.2631C98.66 8.10619 98.8953 6.94274 99.1502 5.78583C99.2548 5.32176 98.9606 4.9492 98.5031 4.9492H84.3195C83.9665 6.66822 83.6071 8.38725 83.2345 10.0997H97.405H97.3919H97.3985ZM87.4373 15.0346H83.1168C82.9796 15.6555 82.8554 16.2765 82.7181 16.8909C82.3848 18.4661 82.0514 20.0479 81.705 21.6231H71.9922C72.3451 20.0479 72.6785 18.4661 73.0053 16.8909C73.2145 15.8908 73.4236 14.8973 73.6524 13.8907C74.1426 11.5769 74.6328 9.2631 75.1165 6.94928C75.6067 4.63546 76.1035 2.32164 76.5872 0.0078125H104.007C105.811 0.0078125 106.961 1.47193 106.582 3.26285C106.288 4.68121 105.967 6.09957 105.673 7.51793C105.379 8.93629 105.085 10.3547 104.765 11.773C104.399 13.5639 102.614 15.0281 100.81 15.0281H98.5358C99.2025 16.1261 99.9149 17.2242 100.601 18.3288C101.281 19.4204 101.967 20.525 102.667 21.6231H92.7447C91.993 21.6231 91.3982 21.3159 91.0453 20.7472C89.8361 18.8387 88.6138 16.9301 87.4438 15.0281H87.4373V15.0346Z" fill="#FF862D"/>
<path d="M105.307 16.5236C105.777 14.3143 106.235 12.1051 106.712 9.8893C107.189 7.68006 107.666 5.47082 108.13 3.25504C108.509 1.46411 110.287 0 112.085 0H139.609C139.504 0.555579 139.373 1.11769 139.269 1.67981C139.125 2.35304 138.962 3.02627 138.824 3.70604C138.681 4.37927 138.034 4.94138 137.354 4.94138H118.353C117.941 4.94138 117.562 5.21591 117.386 5.58847C117.366 5.6473 117.346 5.71266 117.333 5.77148C116.974 7.45129 116.608 9.12457 116.255 10.8109C115.902 12.4842 115.555 14.1705 115.189 15.8438C115.17 15.9092 115.15 15.968 115.17 16.0268C115.17 16.3994 115.444 16.6804 115.837 16.6804H125.53C125.87 16.6804 126.196 16.4778 126.393 16.1902C126.458 16.0856 126.523 15.968 126.556 15.8438C126.726 15.0725 126.883 14.3013 127.04 13.5234C127.059 13.445 127.079 13.36 127.092 13.2816H120.386C119.699 13.2816 119.275 12.7326 119.418 12.0463C119.673 10.8109 119.941 9.5821 120.209 8.34022H137.844C137.504 9.98735 137.145 11.6279 136.805 13.2751C136.785 13.3535 136.766 13.4385 136.752 13.5169C136.543 14.5169 136.321 15.517 136.105 16.5105C135.981 17.1249 135.857 17.7393 135.707 18.3472C135.328 20.1381 133.569 21.6022 131.765 21.6022H107.509C105.712 21.6022 104.548 20.1381 104.921 18.3472C105.045 17.7393 105.189 17.1249 105.32 16.5105H105.307H105.313L105.307 16.5236Z" fill="#FF862D"/>
<path d="M148.11 16.6948H159.502C159.98 16.6948 160.424 16.3157 160.529 15.8582C160.888 14.1783 161.241 12.5051 161.607 10.8253C161.967 9.14545 162.326 7.47218 162.686 5.78583C162.784 5.3283 162.503 4.9492 162.032 4.9492H150.62C150.162 4.9492 149.711 5.3283 149.613 5.78583C149.254 7.46564 148.901 9.14545 148.535 10.8253C148.175 12.5051 147.816 14.1783 147.456 15.8582C147.358 16.3157 147.639 16.6948 148.11 16.6948ZM137.188 18.3681C137.724 15.8451 138.26 13.3352 138.796 10.8187C139.338 8.30228 139.868 5.78583 140.404 3.26939C140.783 1.47846 142.574 0.0078125 144.384 0.0078125H170.353C172.137 0.0078125 173.307 1.47193 172.928 3.26285C172.392 5.7793 171.849 8.30228 171.32 10.8122C170.79 13.3352 170.248 15.8451 169.712 18.3615C169.333 20.1524 167.555 21.6166 165.751 21.6166H139.783C137.998 21.6166 136.809 20.1524 137.188 18.3615V18.3681Z" fill="#FF862D"/>
<path d="M93.4026 43.9946H76.7614C76.3431 43.9946 76.0489 43.7005 76.0293 43.3148C76.0293 43.2495 76.0293 43.1906 76.0489 43.1187C76.2385 42.2233 76.4346 41.3344 76.6176 40.4389H93.4026C94.1151 40.4389 94.8144 39.8572 94.9582 39.1513C95.1086 38.4454 95.2524 37.746 95.4158 37.0335C95.5269 36.4453 95.6576 35.8635 95.7818 35.2818H77.7091C77.8922 34.3864 78.0948 33.4909 78.2778 32.5954C78.2974 32.5301 78.3301 32.4647 78.3693 32.3993C78.5327 32.0137 78.938 31.7196 79.3628 31.7196H98.1218C98.8342 31.7196 99.5728 31.1379 99.7166 30.4319C99.88 29.726 100.03 29.0267 100.174 28.3142C100.298 27.7259 100.429 27.1442 100.54 26.5625H72.8397C71.8854 26.5625 70.9311 26.9612 70.1794 27.6018C69.4408 28.2096 68.9049 29.0463 68.7088 29.9613C68.2251 32.2752 67.7153 34.5824 67.2185 36.8897C66.7218 39.197 66.225 41.5108 65.7282 43.8181C65.6041 44.4587 65.4668 45.0992 65.323 45.7332C64.9112 47.6026 66.1531 49.1386 68.0225 49.1386H94.3961C95.1086 49.1386 95.8276 48.5569 95.9779 47.851C96.1413 47.1451 96.2916 46.4457 96.4354 45.7332C96.5662 45.145 96.6903 44.5633 96.8211 43.9815H93.3895H93.3961L93.4026 43.9946ZM59.6757 32.6085C59.4143 33.8177 59.1724 35.0334 58.9044 36.2426C58.7999 36.7263 58.3162 37.1185 57.839 37.1185H43.041C43.4267 35.3276 43.8123 33.5366 44.1718 31.7327H58.9959C59.4731 31.7327 59.7738 32.1248 59.6692 32.6085H59.6757ZM65.5322 38.8637C65.8655 37.3799 66.1727 35.8962 66.4799 34.419C66.7871 32.9419 67.1139 31.4516 67.4277 29.9744C67.8264 28.105 66.6237 26.5756 64.7413 26.5756H8.18335C7.22253 26.5756 6.26824 26.9808 5.51657 27.6214C4.79759 28.2292 4.26162 29.0659 4.07207 29.9809C3.70604 31.7327 3.33347 33.4778 2.96091 35.2099C2.59488 36.9616 2.20924 38.7003 1.83668 40.4454C1.77785 40.7134 1.72556 40.9945 1.66674 41.2625C1.38568 42.5828 1.09809 43.8966 0.823564 45.2103C0.542506 46.5241 0.254913 47.8379 0 49.1517H10.1246C10.3861 47.8379 10.6671 46.5241 10.9482 45.2103C11.2292 43.8966 11.5168 42.5828 11.7913 41.2625C11.8502 40.9945 11.9025 40.7134 11.9613 40.4454H28.7528C29.4457 40.4454 30.1581 39.8637 30.3085 39.1578C30.4588 38.4519 30.6091 37.7525 30.7529 37.0401C30.864 36.4518 31.0013 35.8701 31.1255 35.2884H13.0594C13.2489 34.3929 13.4319 33.4974 13.628 32.602C13.6476 32.5366 13.6868 32.4712 13.6868 32.4059C13.8764 32.0202 14.3078 31.7261 14.7 31.7261H34.106C34.4524 31.7261 34.7988 31.5889 35.0864 31.3601C34.91 32.1771 34.74 33.0007 34.5635 33.8177C34.0537 36.2296 33.5374 38.6545 33.0275 41.0664C32.7857 42.1122 32.57 43.158 32.3543 44.1972C32.0079 45.8444 31.6615 47.498 31.2889 49.1451H41.4331C41.7926 47.498 42.1456 45.8444 42.4985 44.1972C42.6423 43.5567 42.773 42.9096 42.9168 42.2625H47.4334C48.6556 44.2561 49.9367 46.2496 51.1982 48.2431C51.5577 48.8314 52.1852 49.1582 52.9695 49.1582H63.336C62.6039 48.0144 61.8915 46.8575 61.179 45.7136C60.4666 44.5567 59.7149 43.4194 59.0221 42.269H61.3947C63.2772 42.269 65.14 40.7396 65.5256 38.8702H65.5322V38.8637ZM156.902 26.569C156.608 28.0266 156.294 29.4777 155.98 30.9287C155.667 32.3863 155.359 33.8373 155.039 35.2818H143.169C143.464 33.8308 143.777 32.3732 144.091 30.9287C144.405 29.4711 144.712 28.0201 145.032 26.569H134.895C134.104 30.3339 133.3 34.1053 132.496 37.8636C131.692 41.6285 130.881 45.3934 130.097 49.1582H140.222C140.542 47.7072 140.849 46.2561 141.163 44.8051C141.477 43.3541 141.784 41.8965 142.084 40.452H153.98C153.66 41.903 153.353 43.3541 153.039 44.8051C152.725 46.2561 152.418 47.7137 152.118 49.1582H162.255C163.059 45.3934 163.863 41.6285 164.654 37.8636C165.451 34.0988 166.268 30.3339 167.079 26.569H156.909H156.902ZM128.084 35.2818H111.135C110.678 35.2426 110.397 34.8635 110.495 34.406C110.619 33.8046 110.743 33.2033 110.88 32.5954C110.985 32.1118 111.469 31.7196 111.946 31.7196H130.973C131.666 31.7196 132.385 31.1379 132.528 30.4319C132.692 29.726 132.842 29.0267 132.986 28.3142C133.117 27.7259 133.241 27.1442 133.372 26.5625H105.455C103.566 26.5625 101.71 28.0985 101.305 29.9679C101.05 31.1509 100.782 32.3274 100.534 33.504C100.285 34.6805 100.037 35.857 99.7885 37.0401C99.3833 38.9094 100.612 40.4389 102.495 40.4389H119.443C119.881 40.4781 120.175 40.8572 120.083 41.3148C119.959 41.9161 119.835 42.5174 119.698 43.1253C119.593 43.609 119.11 44.0011 118.619 44.0011H99.6055C98.893 44.0011 98.1806 44.5894 98.0303 45.2888C97.8865 45.9947 97.7165 46.7006 97.5727 47.4065C97.4485 47.9948 97.3178 48.5765 97.2067 49.1582H125.136C126.999 49.1582 128.862 47.6222 129.267 45.7528C129.522 44.5698 129.77 43.3998 130.012 42.2233C130.26 41.0402 130.515 39.8702 130.757 38.6872C131.156 36.8113 129.953 35.2818 128.071 35.2818H128.084Z" fill="#092C4F"/>
</svg>
