<svg width="64" height="64" viewBox="0 0 64 64" fill="none" xmlns="http://www.w3.org/2000/svg">
<rect width="64" height="64" rx="10" fill="#092C4F"/>
<path d="M56.2016 31.5653L57.6581 26.8105C57.739 26.5438 57.54 26.2738 57.2626 26.2738H33.7111C33.622 26.2738 33.5361 26.3027 33.4643 26.3555L25.0353 32.6164L23.3625 36.7661L27.5007 40.4781L26.1656 44.1407H28.6483L30.5382 39.7037H48.5083C48.8047 39.7037 49.0673 39.5105 49.1564 39.2265L50.4692 35.0033C50.6046 34.5657 50.2793 34.1207 49.8211 34.1207H32.8277L33.7244 31.8568H55.8053C55.987 31.8568 56.148 31.7387 56.2008 31.5645L56.2025 31.5662L56.2016 31.5653Z" fill="#FF862D"/>
<path d="M15.2214 37.7257L30.1788 26.1428C30.2712 26.0709 30.3414 25.9768 30.3827 25.8678L32.2932 20.8603C32.4509 20.445 32.1454 20 31.7021 20H28.4276C28.2839 20 28.1468 20.0479 28.0337 20.1371L7.86165 36.143C7.61643 36.3502 7.45378 36.6317 7.40589 36.9257L6.4143 43.0346C6.31522 43.6447 6.73795 44.1442 7.36214 44.1442H24.8203C25.04 44.1442 25.2365 44.0072 25.3108 43.7991L26.2553 41.2041C26.3288 41.0027 26.2726 40.7765 26.1133 40.6344L23.2037 38.0238C22.9899 37.8322 22.7133 37.7249 22.4243 37.7249H15.2173H15.2189L15.2214 37.7257Z" fill="#F7F7F6"/>
</svg>
